<?xml version="1.0" encoding="UTF-8"?>
<svg version="1.1" xmlns="http://www.w3.org/2000/svg" width="1024" height="1024">
<path d="M0 0 C4.96966263 4.53791745 8.68834677 9.9042019 12.37109375 15.5 C13.25956054 16.84122779 14.14815857 18.18236865 15.03686523 19.5234375 C15.51324432 20.24370117 15.98962341 20.96396484 16.48043823 21.70605469 C19.22701997 25.85232135 21.98978447 29.98780288 24.75 34.125 C25.94798518 35.92182933 27.14590098 37.7187049 28.34375 39.515625 C28.94574219 40.41861328 29.54773438 41.32160156 30.16796875 42.25195312 C35.65625 50.484375 35.65625 50.484375 37.46200562 53.19306946 C38.6510784 54.97663804 39.84022598 56.76015677 41.02944946 58.54362488 C43.56221291 62.34214625 46.09449634 66.14097476 48.62255859 69.94262695 C54.96415096 79.4757308 61.36824806 88.96609804 67.77810669 98.45339966 C80.67301156 117.54273395 93.48996012 136.68254951 106.24804688 155.86352539 C109.27946115 160.4206258 112.31287432 164.97639162 115.34765625 169.53125 C115.83275162 170.25981705 116.31784698 170.98838409 116.81764221 171.73902893 C119.58099752 175.88550512 122.36104339 180.02001666 125.16104126 184.1418457 C138.14192122 203.34280543 138.14192122 203.34280543 138 212 C137.11051708 216.21537557 135.78363909 219.17158154 132.8125 222.3125 C126.4936141 226.10383154 120.9287332 227.45969541 113.6875 227.3984375 C112.52951904 227.40274277 112.52951904 227.40274277 111.34814453 227.40713501 C109.72118391 227.4091642 108.09419824 227.40371499 106.46728516 227.39111328 C104.03359281 227.37521939 101.60160624 227.39090826 99.16796875 227.41015625 C88.75913345 227.42311309 79.16280946 226.26720323 69 224 C67.33411326 223.6627905 65.66777016 223.32776757 64 223 C64 222.34 64 221.68 64 221 C62.96875 220.814375 61.9375 220.62875 60.875 220.4375 C56.77315171 219.27972024 54.95252809 217.07492403 52.39453125 213.78125 C50.92832191 211.81856655 50.92832191 211.81856655 48.5625 209.6875 C42.53179902 203.36261848 38.07203134 195.64693378 33.48046875 188.25 C32.05830088 185.92361483 32.05830088 185.92361483 30 184 C29.31456397 182.67621767 28.64931629 181.34186831 28 180 C27.26849333 178.79457109 26.51768626 177.6006854 25.75 176.41796875 C25.09306152 175.40355713 25.09306152 175.40355713 24.42285156 174.36865234 C23.95331055 173.64887207 23.48376953 172.9290918 23 172.1875 C22.50725586 171.42904785 22.01451172 170.6705957 21.50683594 169.88916016 C18.06271821 164.59926927 14.57215924 159.34181185 11.05932617 154.09741211 C7.10082936 148.17627976 3.20391874 142.21537457 -0.6875 136.25 C-1.3052832 135.30366699 -1.92306641 134.35733398 -2.55957031 133.38232422 C-6.23896644 127.73540493 -9.87389608 122.06318812 -13.46337891 116.35864258 C-16.34163263 111.94065572 -18.98152687 108.05343029 -24 106 C-26.15276456 105.61308205 -26.15276456 105.61308205 -28.375 105.625 C-29.10460937 105.59664062 -29.83421875 105.56828125 -30.5859375 105.5390625 C-35.11207288 106.40327605 -37.8565865 108.50646203 -40.59619141 112.08496094 C-42.34076635 114.70678696 -43.99288242 117.36924122 -45.625 120.0625 C-46.23545166 121.04621582 -46.84590332 122.02993164 -47.47485352 123.04345703 C-48.7280049 125.06301062 -49.97646985 127.08547976 -51.22021484 129.11083984 C-53.75383356 133.22371281 -56.34670383 137.29802092 -58.9375 141.375 C-62.22199681 146.56825043 -65.48524085 151.77430511 -68.73046875 156.9921875 C-80.53541135 175.96621977 -80.53541135 175.96621977 -86.50219727 184.75170898 C-89.0453853 188.51048888 -91.4404865 192.33615025 -93.78955078 196.21899414 C-101.95427761 209.64679094 -111.18972249 220.65743337 -126.734375 225.4921875 C-132.57526065 226.80135153 -138.34550668 227.15886469 -144.3125 227.16796875 C-145.08505127 227.17129715 -145.85760254 227.17462555 -146.65356445 227.17805481 C-148.27717499 227.1830881 -149.90079574 227.18546426 -151.52441406 227.18530273 C-153.99301281 227.1874938 -156.4611673 227.2057001 -158.9296875 227.22460938 C-160.51562349 227.22754325 -162.10156158 227.22952809 -163.6875 227.23046875 C-164.41686768 227.23765427 -165.14623535 227.24483978 -165.89770508 227.25224304 C-171.68854831 227.22670455 -176.6965504 226.39278348 -181.6875 223.375 C-185.8135161 219.13746995 -187.71420186 214.96883164 -188.5625 209.125 C-188.01526721 199.69689575 -180.33564003 190.55983197 -175.375 182.9375 C-174.66279297 181.8340625 -173.95058594 180.730625 -173.21679688 179.59375 C-171.14935848 176.39267555 -169.07553777 173.19582678 -167 170 C-166.02307249 168.49112168 -165.04646089 166.98203873 -164.0703125 165.47265625 C-162.7868685 163.48856271 -161.50305786 161.50471632 -160.2175293 159.52197266 C-150.36723711 144.32209385 -140.65269387 129.0342025 -130.93823242 113.74731445 C-127.4831692 108.31553029 -124.00480735 102.89980352 -120.5 97.5 C-116.20012089 90.87262653 -111.93463754 84.22379993 -107.6875 77.5625 C-106.82511719 76.21285156 -106.82511719 76.21285156 -105.9453125 74.8359375 C-103.21155339 70.54184256 -100.5351072 66.22935949 -97.95703125 61.83984375 C-95.6844824 58.0156305 -93.17708907 54.51731331 -90.46484375 50.99755859 C-87.85843918 47.44329157 -85.71205987 43.61957547 -83.5 39.8125 C-79.09103293 32.36061596 -74.52462944 25.0358729 -69.75 17.8125 C-68.91952148 16.54079956 -68.91952148 16.54079956 -68.07226562 15.2434082 C-59.72700268 2.73415533 -51.02176153 -6.12523094 -36.125 -9.6875 C-22.47598316 -11.05240168 -10.93199307 -8.6439015 0 0 Z " fill="#7B9AF7" transform="translate(535,703)"/>
<path d="M0 0 C17.35843628 0.37735731 32.30623263 1.87917445 47 12 C48.051875 12.721875 49.10375 13.44375 50.1875 14.1875 C58.72950292 22.72950292 64.95594493 33.40311342 71.42089844 43.53662109 C74.33604113 48.08420764 77.29575823 52.60275811 80.25 57.125 C81.5351724 59.09504155 82.82032849 61.06509373 84.10546875 63.03515625 C86.66797543 66.96133982 89.23338216 70.88560794 91.80078125 74.80859375 C99.07864879 85.93623154 106.27966724 97.1083632 113.40234375 108.3359375 C117.251043 114.40164899 121.12460701 120.45132007 125 126.5 C130.07866043 134.4273228 135.14105719 142.36463482 140.1875 150.3125 C144.5846581 157.23505295 149.02029982 164.13058389 153.5 171 C159.17375978 179.7004521 164.75935517 188.45474058 170.328125 197.22265625 C179.54336613 211.73043451 188.81082845 226.20374955 198.19848633 240.60058594 C203.45569219 248.67505434 208.6200063 256.80787092 213.78515625 264.94140625 C218.73360714 272.7332298 223.72918384 280.49429142 228.74609375 288.2421875 C229.22022705 288.9746167 229.69436035 289.7070459 230.18286133 290.46166992 C231.13337834 291.9287198 232.08501256 293.39504653 233.0378418 294.8605957 C235.10847119 298.05010697 237.16412222 301.24421785 239.1484375 304.48828125 C239.75945313 305.48214844 240.37046875 306.47601562 241 307.5 C241.515625 308.3559375 242.03125 309.211875 242.5625 310.09375 C243.93983225 312.29497503 243.93983225 312.29497503 247 313 C246.67 313.66 246.34 314.32 246 315 C246.76905964 316.72270838 246.76905964 316.72270838 248.03515625 318.578125 C248.50759766 319.31546875 248.98003906 320.0528125 249.46679688 320.8125 C250.25666992 322.0190625 250.25666992 322.0190625 251.0625 323.25 C252.17839954 324.98436591 253.29428438 326.71874129 254.41015625 328.453125 C254.99941895 329.36255859 255.58868164 330.27199219 256.19580078 331.20898438 C259.15668818 335.78934496 262.07571924 340.39621994 265 345 C266.1847895 346.86074479 267.36968488 348.72142218 268.5546875 350.58203125 C274.68272836 360.21205414 280.76840576 369.86892525 286.8515625 379.52734375 C293.26065935 389.69679146 299.72631651 399.8287797 306.21557617 409.94726562 C309.86923209 415.65027723 313.49478836 421.36789028 317.0625 427.125 C323.5243603 437.53463382 330.28733119 447.75125314 337 458 C339.48102491 461.79045472 341.9602309 465.58208957 344.4375 469.375 C345.05689453 470.32310547 345.67628906 471.27121094 346.31445312 472.24804688 C350.15540991 478.13857316 353.95447885 484.05415776 357.72998047 489.98681641 C365.30524777 501.88918826 373.06282543 513.65503257 380.90869141 525.37988281 C386.6050412 533.89392339 392.23261849 542.44728289 397.76123047 551.07128906 C399.56901104 553.88592574 401.38861262 556.69286178 403.20800781 559.5 C404.59537548 561.64176676 405.97942229 563.78565259 407.36328125 565.9296875 C409.05523161 568.54840321 410.76074805 571.15725925 412.48046875 573.7578125 C427.29261813 596.26593237 427.29261813 596.26593237 426 610 C424.38751602 616.21332142 422.04459908 620.89393098 417 625 C416.46246094 625.44085937 415.92492187 625.88171875 415.37109375 626.3359375 C403.7603617 635.32321555 386.95337554 633.26888638 373 633 C372.05495605 632.98211426 371.10991211 632.96422852 370.13623047 632.94580078 C346.99720593 632.42705649 328.33918061 628.26720654 311 612 C310.45851318 611.49291504 309.91702637 610.98583008 309.35913086 610.46337891 C304.90144923 606.16588658 301.24808502 601.55472479 297.6875 596.5 C296.84239868 595.31325684 296.84239868 595.31325684 295.98022461 594.10253906 C287.7499814 582.48803851 280.06478198 570.55885151 272.45117188 558.53393555 C267.84197249 551.27345422 263.10770687 544.10493713 258.3190918 536.96191406 C252.09422552 527.67003583 245.99627193 518.29690019 239.89990234 508.92041016 C237.36037027 505.01680148 234.81536056 501.11677878 232.27026367 497.21679688 C222.53645055 482.30072823 212.82039772 467.37318191 203.15209961 452.41455078 C200.77023138 448.73072009 198.38322041 445.0503487 195.98828125 441.375 C189.30619261 431.1190851 182.68323264 420.82739623 176.09643555 410.51000977 C171.48183878 403.29094367 166.81783811 396.10590417 162.125 388.9375 C156.73049563 380.69251812 151.44757915 372.38947785 146.25537109 364.01611328 C143.89687471 360.22839194 141.50977508 356.45870997 139.125 352.6875 C138.3683606 351.49072632 138.3683606 351.49072632 137.59643555 350.26977539 C136.57218421 348.64985091 135.54785127 347.02997802 134.5234375 345.41015625 C133.03510529 343.05553836 131.5484756 340.6998557 130.0625 338.34375 C124.76648675 329.94780366 119.45536856 321.56168262 114.125 313.1875 C113.53920166 312.26718994 112.95340332 311.34687988 112.34985352 310.39868164 C109.41147007 305.78375032 106.47081515 301.17028152 103.52734375 296.55859375 C96.83142744 286.06139915 90.19277974 275.53085182 83.60791016 264.96362305 C79.42666369 258.26074168 75.19534845 251.59191739 70.9375 244.9375 C64.97025927 235.60020741 59.19061031 226.15705405 53.44921875 216.6796875 C45.49555235 203.55759795 37.38111392 190.52985915 29.21484375 177.5390625 C27.79143815 175.27363368 26.39223111 172.9985491 25.00390625 170.7109375 C24.10478516 169.24527344 24.10478516 169.24527344 23.1875 167.75 C22.68605469 166.91984375 22.18460938 166.0896875 21.66796875 165.234375 C19.23375265 161.97355155 16.78711578 159.38863648 12.71875 158.50390625 C11.9865625 158.52324219 11.254375 158.54257812 10.5 158.5625 C9.40171875 158.56443359 9.40171875 158.56443359 8.28125 158.56640625 C3.98330556 159.38331007 1.50710001 161.33272013 -1.12084961 164.79077148 C-1.81186768 165.91040283 -2.50288574 167.03003418 -3.21484375 168.18359375 C-3.78838844 169.10488319 -3.78838844 169.10488319 -4.3735199 170.04478455 C-5.59692057 172.02135346 -6.80089723 174.00860815 -8 176 C-8.3929425 176.64994934 -8.78588501 177.29989868 -9.19073486 177.96954346 C-12.01265976 182.64881277 -14.79153686 187.35292906 -17.5625 192.0625 C-19.16637627 194.78349437 -20.77191208 197.50350216 -22.37890625 200.22265625 C-22.76871674 200.88238937 -23.15852722 201.5421225 -23.56015015 202.22184753 C-26.71180963 207.54254664 -29.94003893 212.81214364 -33.19311523 218.0715332 C-35.7486992 222.21343696 -38.25276651 226.38524566 -40.75 230.5625 C-41.78643783 232.29298103 -42.82289678 234.02344941 -43.859375 235.75390625 C-44.37951172 236.62289551 -44.89964844 237.49188477 -45.43554688 238.38720703 C-47.95400666 242.5932864 -50.47717819 246.79653609 -53 251 C-54.00002395 252.6666523 -55.00002392 254.33331898 -56 256 C-62.03515625 266.05859375 -68.0703125 276.1171875 -74.10546875 286.17578125 C-74.61553467 287.02591797 -75.12560059 287.87605469 -75.65112305 288.75195312 C-76.67462755 290.45773975 -77.69822767 292.16346901 -78.72192383 293.86914062 C-80.8688946 297.44660815 -83.01545572 301.02430104 -85.15625 304.60546875 C-90.54319218 313.60787789 -95.98888494 322.57428569 -101.43798828 331.53915405 C-106.04349304 339.11696419 -110.63417186 346.70317922 -115.1875 354.3125 C-120.49484769 363.179434 -125.86368041 372.00812353 -131.2421875 380.83203125 C-135.27335381 387.44583003 -139.2936327 394.06622422 -143.3125 400.6875 C-144.03214283 401.87304831 -144.75178802 403.05859517 -145.47143555 404.24414062 C-146.92322829 406.63587387 -148.37495933 409.02764456 -149.82666016 411.41943359 C-153.03074083 416.69829518 -156.23565795 421.97664893 -159.44052124 427.2550354 C-161.21038263 430.17000226 -162.98018847 433.08500286 -164.75 436 C-165.45833307 437.16666683 -166.1666664 438.33333349 -166.875 439.5 C-167.225625 440.0775 -167.57625 440.655 -167.9375 441.25 C-169 443 -170.0625 444.75 -171.125 446.5 C-171.47558472 447.07743454 -171.82616943 447.65486908 -172.18737793 448.24980164 C-172.89611498 449.41713145 -173.60485522 450.58445933 -174.31359863 451.75178528 C-176.07828118 454.65828996 -177.84290934 457.56482764 -179.60742188 460.47143555 C-182.86789331 465.84214816 -186.12884802 471.21256519 -189.39172363 476.58181763 C-190.89946119 479.06296251 -192.40689376 481.54429262 -193.91430664 484.02563477 C-194.95234321 485.73406509 -195.99080971 487.44223416 -197.02929688 489.15039062 C-202.05002571 497.41543582 -207.03132881 505.70360805 -212 514 C-212.70832647 515.18253992 -213.41665968 516.3650758 -214.125 517.54760742 C-214.47080109 518.12491104 -214.81660217 518.70221466 -215.17288208 519.29701233 C-223.74173513 533.60172874 -232.32993974 547.89386841 -241.01220703 562.13012695 C-244.16208032 567.29860812 -247.29320204 572.47519317 -250.34375 577.703125 C-256.23991626 587.78465763 -262.51894777 597.03011995 -270 606 C-271.03060547 607.31871094 -271.03060547 607.31871094 -272.08203125 608.6640625 C-282.34016573 621.15767639 -298.15411862 629.63959911 -314 632 C-317.92901847 632.28317405 -321.84296926 632.32744883 -325.78125 632.3359375 C-326.87538208 632.3425943 -327.96951416 632.3492511 -329.09680176 632.35610962 C-331.39606052 632.36617539 -333.69534814 632.37092854 -335.99462891 632.37060547 C-339.49040106 632.37498797 -342.98491846 632.41139981 -346.48046875 632.44921875 C-348.72655823 632.45508651 -350.97265364 632.45905617 -353.21875 632.4609375 C-354.76761902 632.48249405 -354.76761902 632.48249405 -356.34777832 632.50448608 C-366.14615898 632.44346343 -374.15856013 629.71352158 -381.30859375 622.91015625 C-386.36022522 617.205196 -388.33115936 610.59458803 -388 603 C-386.87024843 597.37977124 -385.12658455 592.63633365 -382.5 587.5625 C-382.14671631 586.86987061 -381.79343262 586.17724121 -381.42944336 585.46362305 C-377.75787108 578.36599639 -373.6926993 571.51800964 -369.58740234 564.66552734 C-366.68485062 559.79163321 -363.83034371 554.88945599 -360.96716309 549.99237061 C-354.28742231 538.57141 -347.55849371 527.18054009 -340.8034668 515.80395508 C-336.56500036 508.65914148 -332.36298037 501.49427775 -328.1875 494.3125 C-315.6516619 472.76147313 -302.85255046 451.36330113 -290 430 C-282.35557651 417.28919693 -274.72675047 404.57036199 -267.19116211 391.79467773 C-247.09625631 357.72807663 -226.88443329 323.72608761 -206.03027344 290.11743164 C-202.39028912 284.25088446 -198.76796755 278.37375825 -195.15429688 272.4909668 C-187.37453504 259.8263906 -179.52829284 247.2050893 -171.63525391 234.61083984 C-170.1751843 232.27969856 -168.71755461 229.94706807 -167.26171875 227.61328125 C-163.92770139 222.26906674 -160.59187949 216.92655769 -157.21484375 211.609375 C-151.76248755 203.02075594 -146.39289751 194.39069634 -141.125 185.6875 C-135.92314968 177.09666321 -130.598429 168.59481916 -125.18457031 160.13623047 C-121.19342861 153.89462147 -117.26373538 147.61838438 -113.375 141.3125 C-108.8459157 133.96897647 -104.27274386 126.65591565 -99.65527344 119.36767578 C-95.61811346 112.99106707 -91.61872552 106.59138232 -87.625 100.1875 C-81.58479856 90.50712606 -75.48034536 80.86948083 -69.34375 71.25 C-66.65399542 67.03211695 -63.98025194 62.80443493 -61.31420898 58.5715332 C-33.14234983 13.84739003 -33.14234983 13.84739003 -17 6 C-15.865625 5.4225 -14.73125 4.845 -13.5625 4.25 C-9.05578669 2.66869708 -4.74517201 2.27688126 0 2 C0 1.34 0 0.68 0 0 Z M-26 26 C-28.08658687 28.48572082 -28.08658687 28.48572082 -29.9375 31.3125 C-30.30536621 31.85608154 -30.67323242 32.39966309 -31.05224609 32.9597168 C-36.9322534 41.75850029 -42.44071178 50.80721137 -48.01513672 59.80078125 C-51.22759215 64.97864299 -54.45734598 70.14566719 -57.6875 75.3125 C-58.31277588 76.3130542 -58.93805176 77.3136084 -59.58227539 78.34448242 C-67.13754451 90.42835866 -74.75044793 102.47486746 -82.41186523 114.49169922 C-87.28056643 122.12875077 -92.11722844 129.77716149 -96.8359375 137.5078125 C-99.70413623 142.16898453 -102.67564379 146.76497747 -105.625 151.375 C-111.16804774 160.04728375 -116.56125738 168.80079813 -121.89135742 177.60522461 C-126.46719953 185.1535399 -131.15279485 192.62580062 -135.8828125 200.078125 C-141.33057741 208.66439031 -146.69671144 217.30211842 -152.08105469 225.92822266 C-153.96048007 228.93673794 -155.84297196 231.94330979 -157.7265625 234.94921875 C-164.21824344 245.31317541 -170.66864489 255.70037001 -177.0625 266.125 C-181.94779416 274.09005131 -186.89312948 282.00977867 -191.9375 289.875 C-197.68089848 298.83384329 -203.22605153 307.90497903 -208.72775269 317.01312256 C-213.08213822 324.22069071 -217.47199925 331.39961083 -222 338.5 C-227.6912114 347.42892229 -233.1739839 356.48067132 -238.65454102 365.53955078 C-242.8736594 372.51114415 -247.12836776 379.45857523 -251.4375 386.375 C-257.05116297 395.39499464 -262.51597454 404.50154216 -267.96780396 413.61975098 C-273.37493443 422.66062508 -278.83940204 431.66212629 -284.375 440.625 C-290.51678127 450.56965818 -296.57447281 460.55997055 -302.56445312 470.59667969 C-305.03638718 474.73506724 -307.51883891 478.86714041 -310 483 C-311.00004784 484.66663796 -312.0000479 486.33330459 -313 488 C-331 518 -331 518 -332.50024414 520.50024414 C-333.49962185 522.16598212 -334.49880824 523.8318349 -335.49780273 525.49780273 C-338.00576286 529.67964337 -340.51707597 533.8594005 -343.03515625 538.03515625 C-348.35980801 546.87268846 -353.6217521 555.74022806 -358.765625 564.68432617 C-361.31482553 569.11089133 -363.89411679 573.51740151 -366.5078125 577.90625 C-367.39448608 579.39632568 -367.39448608 579.39632568 -368.29907227 580.91650391 C-369.45016241 582.84768352 -370.60416704 584.77712976 -371.76147461 586.70458984 C-372.54663452 588.02257568 -372.54663452 588.02257568 -373.34765625 589.3671875 C-373.81179932 590.14175293 -374.27594238 590.91631836 -374.75415039 591.71435547 C-378.11923269 597.88795933 -379.90833058 603.70937847 -377.875 610.625 C-375.85845152 615.96612839 -373.06914143 618.88288104 -368.02587891 621.60571289 C-363.08864609 623.63898888 -358.10376296 623.448803 -352.8359375 623.43359375 C-351.23233871 623.44145653 -351.23233871 623.44145653 -349.59634399 623.44947815 C-347.33881495 623.45588381 -345.08125247 623.45458028 -342.82373047 623.44604492 C-339.4066051 623.43757831 -335.99117745 623.4662486 -332.57421875 623.49804688 C-312.4268371 623.56273967 -297.16960623 620.02428927 -282 606 C-269.07722323 592.29097004 -259.91976358 575.68856703 -250.47949219 559.52246094 C-248.53459226 556.20650284 -246.55205113 552.91427904 -244.5625 549.625 C-239.58313418 541.36401471 -234.74824883 533.01876352 -229.89453125 524.68359375 C-210.36318767 491.14750883 -210.36318767 491.14750883 -201.11181641 475.84228516 C-198.85818958 472.10801462 -196.61800532 468.36565621 -194.375 464.625 C-191.00260366 459.00233823 -187.62823088 453.38087731 -184.25 447.76171875 C-178.33581684 437.92069136 -172.43239511 428.07517232 -166.62963867 418.16796875 C-163.01811547 412.00954369 -159.34095091 405.89137295 -155.66015625 399.77416992 C-152.01067197 393.7022827 -148.40482269 387.60583812 -144.8125 381.5 C-139.80553382 372.99454743 -134.70049299 364.55158447 -129.5625 356.125 C-122.92722456 345.24207744 -116.45167501 334.27510754 -110.0546875 323.25 C-107.27914498 318.46867447 -104.45535714 313.71938259 -101.59814453 308.98657227 C-98.17054665 303.3025111 -94.79122754 297.59019359 -91.41171265 291.87744141 C-85.12631666 281.25271505 -78.80272304 270.65208611 -72.43945312 260.07373047 C-68.38091798 253.32057656 -64.36741007 246.54240746 -60.375 239.75 C-55.58342747 231.60374021 -50.65544584 223.55169314 -45.65698242 215.53100586 C-42.42434079 210.33351128 -39.26503813 205.10315012 -36.1875 199.8125 C-31.84113843 192.34789793 -27.34112537 184.97995522 -22.8125 177.625 C-22.14694092 176.54323486 -21.48138184 175.46146973 -20.7956543 174.34692383 C-18.87077823 171.22686797 -16.9374824 168.11224098 -15 165 C-14.36054443 163.96786377 -13.72108887 162.93572754 -13.06225586 161.87231445 C-12.14198608 160.40217896 -12.14198608 160.40217896 -11.203125 158.90234375 C-10.65946289 158.03085693 -10.11580078 157.15937012 -9.55566406 156.26147461 C-6.11906259 151.26567433 -2.01125561 148.24761909 4 147 C11.76485577 146.21383859 17.139023 147.44086818 24 151 C24.99 151.33 25.98 151.66 27 152 C28.01904297 153.79443359 28.01904297 153.79443359 29 156 C29.8798721 157.44118749 30.7800962 158.87005742 31.6953125 160.2890625 C32.23800781 161.1346875 32.78070312 161.9803125 33.33984375 162.8515625 C33.92894531 163.76679688 34.51804687 164.68203125 35.125 165.625 C40.50694292 174.02937016 45.78844494 182.48899757 51 191 C56.55479976 200.066401 62.19542176 209.07042293 67.92407227 218.02783203 C72.35728271 224.96737323 76.70931923 231.9539117 81.03369141 238.96166992 C90.08141537 253.62215643 99.22845339 268.22082475 108.44165039 282.77783203 C112.48450617 289.17065248 116.49473166 295.58357731 120.5 302 C126.96500745 312.35564288 133.47051621 322.68492276 140 333 C149.70449307 348.33085904 159.32927033 363.71058591 168.93652344 379.10253906 C180.14087383 397.05103563 191.4136148 414.95349757 202.78271484 432.7980957 C206.6005935 438.79272401 210.39940288 444.79901945 214.1875 450.8125 C218.36169576 457.43628959 222.59033651 464.02210384 226.85620117 470.5871582 C230.79754609 476.66266265 234.66176056 482.78526485 238.51953125 488.9140625 C242.25453022 494.83987481 246.04717573 500.72595149 249.86425781 506.59912109 C253.20405552 511.74688485 256.48518659 516.9294295 259.75 522.125 C266.06977285 532.1697541 272.55818235 542.10164669 279.05908203 552.02978516 C281.01295721 555.01982861 282.95883496 558.01492847 284.90234375 561.01171875 C299.07778973 583.55208549 299.07778973 583.55208549 316 604 C316.56976562 604.63164063 317.13953125 605.26328125 317.7265625 605.9140625 C329.04218535 618.08774206 344.38299652 623.29715264 360.64135742 623.89331055 C363.09429687 623.94876921 365.54656056 623.97549737 368 624 C369.00401855 624.01901367 370.00803711 624.03802734 371.04248047 624.05761719 C374.32000876 624.11797318 377.59706349 624.1570834 380.875 624.1875 C381.89650146 624.20079346 382.91800293 624.21408691 383.97045898 624.2277832 C393.89561149 624.23660414 405.37768363 624.2192131 413 617 C416.23133913 612.79558715 417.90732624 608.01703565 417.53515625 602.69750977 C415.14346987 590.64197014 405.79003714 579.26886981 399 569.3125 C397.55238439 567.17382258 396.10716296 565.03354339 394.662323 562.89299011 C393.72632081 561.50640072 392.78942123 560.12041665 391.85159302 558.73506165 C388.70251653 554.0746398 385.65367942 549.35984538 382.65527344 544.60083008 C379.562329 539.74107534 376.33298182 534.97173854 373.125 530.1875 C362.39358438 514.14426212 351.80115561 498.00991417 341.20458984 481.87744141 C338.03057922 477.04571343 334.85336141 472.21609966 331.67578125 467.38671875 C330.14643458 465.06173901 328.61717985 462.73669883 327.08798218 460.41162109 C326.13538561 458.96342156 325.18261539 457.51533624 324.22964478 456.06738281 C318.72343045 447.70038684 313.24618588 439.31580003 307.82070923 430.89616394 C304.88110717 426.33946373 301.89394903 421.81697971 298.875 417.3125 C293.0330922 408.57996009 287.36655751 399.73949157 281.74609375 390.86328125 C276.28708722 382.24859519 270.81603772 373.65124391 265.125 365.1875 C259.62345544 357.00481121 254.30599126 348.7100466 249.00366211 340.3972168 C243.72117442 332.11708939 238.38588356 323.87302576 233.0234375 315.64453125 C230.57027697 311.88014466 228.13060076 308.10726401 225.6953125 304.33129883 C221.90714705 298.45843852 218.08541556 292.61311079 214.1875 286.8125 C208.26552234 277.98459689 202.60553207 268.99077072 196.91357422 260.01367188 C187.19637388 244.71013514 177.38232624 229.47013641 167.48632812 214.28173828 C160.74273481 203.92930346 154.06217655 193.5417452 147.48022461 183.08569336 C143.74685238 177.16210825 139.95550038 171.27847285 136.14013672 165.4074707 C132.75823814 160.19446555 129.43313269 154.947566 126.125 149.6875 C120.32314174 140.46677402 114.38791532 131.33588909 108.43847656 122.20996094 C103.72227775 114.96436832 99.07037679 107.67726771 94.41796875 100.390625 C86.54423851 88.0635765 78.62018656 75.77222894 70.61328125 63.53125 C67.62328103 58.9597288 64.65163093 54.37661481 61.68554688 49.78955078 C59.57350609 46.52910312 57.44967712 43.27648161 55.32177734 40.02636719 C54.20077879 38.30780642 53.09305998 36.58059484 51.98828125 34.8515625 C44.66221491 23.75146199 34.76280641 15.42506355 21.5625 12.6875 C3.39064408 10.04432096 -12.21119233 13.75336161 -26 26 Z " fill="#DEE4EF" transform="translate(497,304)"/>
<path d="M0 0 C2.42621048 2.42621048 2.55228735 3.77746065 3.2265625 7.109375 C3.44932861 8.16326416 3.67209473 9.21715332 3.90161133 10.30297852 C4.14032959 11.44049561 4.37904785 12.5780127 4.625 13.75 C9.73076871 36.79830815 17.4453768 60.51436109 34 78 C34.66128906 78.70253906 35.32257813 79.40507813 36.00390625 80.12890625 C54.29628757 97.86592115 82.97367219 105.27109458 107 111 C104.25321663 113.74678337 101.11641524 114.25842329 97.46484375 115.2421875 C96.71215714 115.45183136 95.95947052 115.66147522 95.18397522 115.87747192 C91.96627959 116.77352959 88.74443892 117.654236 85.52270508 118.53564453 C73.86065995 121.62821483 73.86065995 121.62821483 62.72875977 126.20751953 C60.84565463 127.07075343 59.01066423 127.51804208 57 128 C34.9139159 138.19629122 22.30666543 156.46491626 13.99023438 178.69970703 C9.83795126 190.30224953 6.24118887 201.99144006 3.54638672 214.02026367 C3.08662391 216.02708874 2.55091969 218.01626206 2 220 C1.34 220.33 0.68 220.66 0 221 C-0.13986328 220.38817871 -0.27972656 219.77635742 -0.42382812 219.14599609 C-7.45714646 188.77947459 -16.60674471 153.07468158 -44.21875 134.87890625 C-60.4385233 124.97623453 -78.71530215 120.21471861 -96.80297852 114.95800781 C-99.89145276 114.03252687 -102.94714715 113.03635031 -106 112 C-106 111.67 -106 111.34 -106 111 C-105.40799805 110.8548999 -104.81599609 110.7097998 -104.20605469 110.56030273 C-66.97381986 102.67243329 -66.97381986 102.67243329 -36.51953125 81.953125 C-35 80 -35 80 -33.046875 79.0390625 C-21.17573241 73.01287179 -13.96709674 49.72570124 -9.80859375 37.79296875 C-5.77544229 25.43593494 -2.98895326 12.64070832 0 0 Z " fill="#F9D279" transform="translate(507,32)"/>
<path d="M0 0 C1 2 1 2 0.40625 3.8046875 C-0.19600398 5.18052634 -0.80015964 6.55553436 -1.40625 7.9296875 C-2.66793317 12.32897751 -0.09191146 16.29955302 1.890625 20.1640625 C3.97214273 23.60882775 6.27130781 24.7571026 10 26 C10 26.66 10 27.32 10 28 C15.94115491 27.93070312 21.88163401 27.84253578 27.82226562 27.73754883 C29.83944139 27.70447773 31.85670574 27.67639148 33.87402344 27.65356445 C36.78879227 27.61968855 39.70276225 27.567359 42.6171875 27.51171875 C43.50614716 27.50532883 44.39510681 27.4989389 45.31100464 27.49235535 C51.6247926 27.34705742 57.04682043 26.0629826 63 24 C64.19625 23.608125 65.3925 23.21625 66.625 22.8125 C67.40875 22.544375 68.1925 22.27625 69 22 C66.57519296 24.82894155 64.23681526 25.88805716 60.75 27.125 C59.83734375 27.45757813 58.9246875 27.79015625 57.984375 28.1328125 C51.95397765 29.88510074 45.93189432 30.15844144 39.6875 30.16796875 C38.91494873 30.17129715 38.14239746 30.17462555 37.34643555 30.17805481 C35.72282501 30.1830881 34.09920426 30.18546426 32.47558594 30.18530273 C30.00698719 30.1874938 27.5388327 30.2057001 25.0703125 30.22460938 C23.48437651 30.22754325 21.89843842 30.22952809 20.3125 30.23046875 C19.58313232 30.23765427 18.85376465 30.24483978 18.10229492 30.25224304 C12.31145169 30.22670455 7.3034496 29.39278348 2.3125 26.375 C-1.65151881 22.30384555 -4.17160712 17.75253729 -4.5 12 C-4.28375182 7.45878824 -2.29017947 3.84422982 0 0 Z " fill="#6379C1" transform="translate(351,900)"/>
<path d="M0 0 C1 2 1 2 0.40625 3.8046875 C-0.19600398 5.18052634 -0.80015964 6.55553436 -1.40625 7.9296875 C-2.66793317 12.32897751 -0.09191146 16.29955302 1.890625 20.1640625 C3.97214273 23.60882775 6.27130781 24.7571026 10 26 C9.67 26.66 9.34 27.32 9 28 C1.6446281 25.79338843 1.6446281 25.79338843 -1.4375 22 C-3.86798796 17.33346311 -4.71146183 13.22046668 -4 8 C-2.90431381 5.1818377 -1.54615488 2.59533141 0 0 Z " fill="#6D86D3" transform="translate(351,900)"/>
<path d="M0 0 C2.61841871 2.61841871 2.81850937 4.71587765 3.625 8.3125 C3.88539063 9.44300781 4.14578125 10.57351562 4.4140625 11.73828125 C4.9267439 14.59220771 5.11914675 17.11339907 5 20 C4.54625 19.34 4.0925 18.68 3.625 18 C3.08875 17.34 2.5525 16.68 2 16 C1.34 16 0.68 16 0 16 C-2.4397763 12.55560993 -1.97894692 9.85970892 -1.359375 5.90625 C-0.98347004 3.91231934 -0.56836981 1.94869649 0 0 Z " fill="#E5C172" transform="translate(507,32)"/>
<path d="M0 0 C1.34955216 4.36228054 0.31660675 7.88158443 -0.8125 12.1875 C-0.99103516 12.92419922 -1.16957031 13.66089844 -1.35351562 14.41992188 C-1.83240416 16.29917038 -2.40932517 18.15283665 -3 20 C-3.66 20.33 -4.32 20.66 -5 21 C-5.36552803 19.58622218 -5.71695495 18.16879424 -6.0625 16.75 C-6.25972656 15.96109375 -6.45695312 15.1721875 -6.66015625 14.359375 C-7.01497267 11.89605178 -6.76877544 10.34395868 -6 8 C-4.68 7.67 -3.36 7.34 -2 7 C-1.34 4.69 -0.68 2.38 0 0 Z " fill="#EAC57A" transform="translate(512,232)"/>
<path d="M0 0 C0.33 0.66 0.66 1.32 1 2 C-1.43077027 8.65263443 -4.79297099 14.12890835 -10 19 C-10.5775 19.5775 -11.155 20.155 -11.75 20.75 C-12.1625 21.1625 -12.575 21.575 -13 22 C-11.29816715 16.88424944 -8.32246469 12.64984185 -5.375 8.1875 C-4.859375 7.39923828 -4.34375 6.61097656 -3.8125 5.79882812 C-2.54558583 3.8632648 -1.27467036 1.93046058 0 0 Z " fill="#6983D4" transform="translate(367,875)"/>
<path d="M0 0 C3.34292611 3.1019945 5.76244801 6.43575362 8.25 10.25 C8.95640625 11.32765625 9.6628125 12.4053125 10.390625 13.515625 C10.92171875 14.33546875 11.4528125 15.1553125 12 16 C11.67 16.66 11.34 17.32 11 18 C5.24287304 12.56271343 1.83477624 7.64490099 0 0 Z " fill="#6A85D8" transform="translate(616,823)"/>
<path d="M0 0 C0 0.66 0 1.32 0 2 C-0.99 2.495 -0.99 2.495 -2 3 C-1.34 3.66 -0.68 4.32 0 5 C-1.8141927 4.71905418 -3.62635001 4.42493567 -5.4375 4.125 C-6.95150391 3.88136719 -6.95150391 3.88136719 -8.49609375 3.6328125 C-9.32238281 3.42398438 -10.14867187 3.21515625 -11 3 C-11.33 2.34 -11.66 1.68 -12 1 C-10.56496445 0.63597631 -9.12683494 0.28413409 -7.6875 -0.0625 C-6.88699219 -0.25972656 -6.08648437 -0.45695313 -5.26171875 -0.66015625 C-3 -1 -3 -1 0 0 Z " fill="#E0BC6B" transform="translate(413,142)"/>
<path d="M0 0 C5.13503344 0.64187918 9.9943454 1.68272247 15 3 C11.73454239 4.88391785 8.71888239 5.49287967 5 6 C5.33 5.34 5.66 4.68 6 4 C4.68 3.67 3.36 3.34 2 3 C2 2.34 2 1.68 2 1 C1.34 0.67 0.68 0.34 0 0 Z " fill="#ECC570" transform="translate(596,139)"/>
<path d="M0 0 C3.25524265 3.02272532 5.61820737 6.25718301 8 10 C7.67 10.66 7.34 11.32 7 12 C6.34 12 5.68 12 5 12 C4.67 10.68 4.34 9.36 4 8 C3.34 8 2.68 8 2 8 C0.93224776 6.03533587 -0.06553465 4.03144641 -1 2 C-0.67 1.34 -0.34 0.68 0 0 Z " fill="#6D89DD" transform="translate(563,744)"/>
<path d="M0 0 C0.33 0.66 0.66 1.32 1 2 C-0.41097867 4.45669355 -1.86043594 6.77914624 -3.4375 9.125 C-4.0881543 10.11306641 -4.0881543 10.11306641 -4.75195312 11.12109375 C-5.82749114 12.75212943 -6.91284486 14.37668453 -8 16 C-8.33 15.34 -8.66 14.68 -9 14 C-6.98488028 8.71836201 -4.44006916 3.61783413 0 0 Z " fill="#6780D3" transform="translate(464,860)"/>
<path d="M0 0 C0.33 0.66 0.66 1.32 1 2 C-0.24493748 4.28974316 -1.52641528 6.44190034 -2.9375 8.625 C-3.32357422 9.23601563 -3.70964844 9.84703125 -4.10742188 10.4765625 C-5.06446326 11.9889242 -6.03132811 13.49506117 -7 15 C-7.33 14.34 -7.66 13.68 -8 13 C-7.0625 10.375 -7.0625 10.375 -6 8 C-5.34 8 -4.68 8 -4 8 C-3.67 6.35 -3.34 4.7 -3 3 C-2.34 3 -1.68 3 -1 3 C-0.67 2.01 -0.34 1.02 0 0 Z " fill="#D3DAE5" transform="translate(157,835)"/>
<path d="M0 0 C3.2626876 3.08632611 6.02235218 5.93483504 8 10 C7.67 10.66 7.34 11.32 7 12 C6.34 12 5.68 12 5 12 C2.28317615 8.26436721 1.13273539 4.44380808 0 0 Z " fill="#6984D8" transform="translate(642,862)"/>
<path d="M0 0 C3.2626876 3.08632611 6.02235218 5.93483504 8 10 C7.67 10.66 7.34 11.32 7 12 C3.31959133 9.67553136 1.7005094 7.92034525 0.6875 3.75 C0.460625 2.5125 0.23375 1.275 0 0 Z " fill="#6983D5" transform="translate(547,720)"/>
<path d="M0 0 C0 3.68553144 -0.8522582 5.03759752 -3 8 C-5.96240248 10.1477418 -7.31446856 11 -11 11 C-8.53362623 7.65277846 -6.70046607 5.7905481 -3 4 C-1.26574227 1.96682993 -1.26574227 1.96682993 0 0 Z " fill="#EBC470" transform="translate(479,106)"/>
<path d="M0 0 C3.25524265 3.02272532 5.61820737 6.25718301 8 10 C7.67 10.66 7.34 11.32 7 12 C4.35247996 9.42215154 2.05567935 7.08351902 0 4 C0 2.68 0 1.36 0 0 Z " fill="#6882D4" transform="translate(650,874)"/>
<path d="M0 0 C0.33 0.66 0.66 1.32 1 2 C1.66 2 2.32 2 3 2 C6.125 8.625 6.125 8.625 5 12 C5 11.34 5 10.68 5 10 C4.34 10 3.68 10 3 10 C0 3.375 0 3.375 0 0 Z " fill="#F1CC76" transform="translate(516,70)"/>
<path d="M0 0 C0.33 0.66 0.66 1.32 1 2 C0.2754531 3.7125654 -0.45458944 5.42335234 -1.23046875 7.11328125 C-2.27998746 9.68646671 -2.66496043 12.2526755 -3 15 C-3.33 15 -3.66 15 -4 15 C-4.05437607 13.41705218 -4.09296271 11.83355744 -4.125 10.25 C-4.14820312 9.36828125 -4.17140625 8.4865625 -4.1953125 7.578125 C-3.98870725 4.85093574 -3.47305841 3.28684592 -2 1 C-1.34 0.67 -0.68 0.34 0 0 Z " fill="#D5DBE5" transform="translate(122,894)"/>
<path d="M0 0 C3.08089673 2.77280706 4.68775452 5.06326356 6 9 C2.83282717 7.41641358 1.26731682 6.54736301 -0.3125 3.3125 C-0.539375 2.549375 -0.76625 1.78625 -1 1 C-0.67 0.67 -0.34 0.34 0 0 Z " fill="#6B86DC" transform="translate(610,814)"/>
<path d="M0 0 C0.6875 1.6875 0.6875 1.6875 1 4 C-0.25 6.6875 -0.25 6.6875 -2 9 C-2.99 9.33 -3.98 9.66 -5 10 C-3.66511872 6.40608886 -2.03977277 3.24509304 0 0 Z " fill="#D7DEE8" transform="translate(171,795)"/>
<path d="M0 0 C5 2 5 2 10 4 C10 4.33 10 4.66 10 5 C4.60158311 5.49076517 4.60158311 5.49076517 1.625 3.0625 C0 1 0 1 0 0 Z " fill="#D6DCE6" transform="translate(826,919)"/>
<path d="M0 0 C0.75 1.625 0.75 1.625 1 4 C-0.9375 7.25 -0.9375 7.25 -3 10 C-3.33 9.34 -3.66 8.68 -4 8 C-1.48571429 1.48571429 -1.48571429 1.48571429 0 0 Z " fill="#708BDE" transform="translate(448,883)"/>
<path d="M0 0 C0.33 0.66 0.66 1.32 1 2 C0.00390625 3.9453125 0.00390625 3.9453125 -1.4375 6.125 C-1.91058594 6.84945312 -2.38367188 7.57390625 -2.87109375 8.3203125 C-3.24363281 8.87460937 -3.61617188 9.42890625 -4 10 C-4.33 9.34 -4.66 8.68 -5 8 C-2.51612903 1.25806452 -2.51612903 1.25806452 0 0 Z " fill="#D3D9E5" transform="translate(353,702)"/>
<path d="M0 0 C0.66 0 1.32 0 2 0 C0.66511872 3.59391114 -0.96022723 6.75490696 -3 10 C-3.33 9.34 -3.66 8.68 -4 8 C-1.48571429 1.48571429 -1.48571429 1.48571429 0 0 Z " fill="#D9DEE9" transform="translate(463,518)"/>
<path d="M0 0 C0.6875 1.6875 0.6875 1.6875 1 4 C-0.25 6.6875 -0.25 6.6875 -2 9 C-2.99 9.33 -3.98 9.66 -5 10 C-3.66511872 6.40608886 -2.03977277 3.24509304 0 0 Z " fill="#D9DFE8" transform="translate(380,451)"/>
<path d="M0 0 C0.75 1.625 0.75 1.625 1 4 C-0.9375 7.25 -0.9375 7.25 -3 10 C-3.33 9.34 -3.66 8.68 -4 8 C-1.48571429 1.48571429 -1.48571429 1.48571429 0 0 Z " fill="#D6DCE7" transform="translate(247,876)"/>
<path d="M0 0 C2.4375 1.125 2.4375 1.125 5 3 C5.8125 6.1875 5.8125 6.1875 6 9 C2.91910327 6.22719294 1.31224548 3.93673644 0 0 Z " fill="#D8DDE8" transform="translate(573,376)"/>
<path d="M0 0 C3.95820859 0.56545837 6.6659053 1.80902348 10 4 C7.39417629 4.93065133 6.35801776 5.14917407 3.75 4.0625 C3.1725 3.711875 2.595 3.36125 2 3 C2 2.34 2 1.68 2 1 C1.34 0.67 0.68 0.34 0 0 Z " fill="#D7DCE2" transform="translate(529,309)"/>
<path d="M0 0 C0 3.69418201 -1.28179295 5.77836178 -3 9 C-3.99 9 -4.98 9 -6 9 C-4.02 6.03 -2.04 3.06 0 0 Z " fill="#85A4FB" transform="translate(402,823)"/>
<path d="M0 0 C1.32 0 2.64 0 4 0 C5.06775224 1.96466413 6.06553465 3.96855359 7 6 C6.67 6.66 6.34 7.32 6 8 C4.02 5.36 2.04 2.72 0 0 Z " fill="#6780D5" transform="translate(515,810)"/>
<path d="M0 0 C2.99324263 1.0975223 3.84610901 1.67682892 5.25 4.625 C5.4975 5.40875 5.745 6.1925 6 7 C5.01 7 4.02 7 3 7 C0 2.77777778 0 2.77777778 0 0 Z " fill="#738EE2" transform="translate(573,761)"/>
<path d="M0 0 C0.33 0.66 0.66 1.32 1 2 C0.00390625 3.9453125 0.00390625 3.9453125 -1.4375 6.125 C-1.91058594 6.84945312 -2.38367188 7.57390625 -2.87109375 8.3203125 C-3.24363281 8.87460937 -3.61617188 9.42890625 -4 10 C-4.33 9.34 -4.66 8.68 -5 8 C-4.0625 5.375 -4.0625 5.375 -3 3 C-2.34 3 -1.68 3 -1 3 C-0.67 2.01 -0.34 1.02 0 0 Z " fill="#CED5E3" transform="translate(333,735)"/>
<path d="M0 0 C0.66 0 1.32 0 2 0 C2 0.66 2 1.32 2 2 C2.99 2.33 3.98 2.66 5 3 C5.33 4.98 5.66 6.96 6 9 C3.03134491 6.45543849 1.6380249 3.51005335 0 0 Z " fill="#D5DBE8" transform="translate(637,657)"/>
<path d="M0 0 C0 3.57575896 -1.08840607 5.05295935 -3 8 C-3.75 6.25 -3.75 6.25 -4 4 C-2.0625 1.75 -2.0625 1.75 0 0 Z " fill="#D6DCE7" transform="translate(141,862)"/>
<path d="M0 0 C0.75 1.75 0.75 1.75 1 4 C-0.9375 6.25 -0.9375 6.25 -3 8 C-3 4.42424104 -1.91159393 2.94704065 0 0 Z " fill="#D7DDE7" transform="translate(295,588)"/>
<path d="M0 0 C2.72426311 2.35277269 3.8141763 4.62496331 5 8 C3.0625 7.375 3.0625 7.375 1 6 C0.25 2.875 0.25 2.875 0 0 Z " fill="#D6DCE6" transform="translate(677,518)"/>
<path d="M0 0 C0.99 0.495 0.99 0.495 2 1 C1.67 1.66 1.34 2.32 1 3 C0.67 2.01 0.34 1.02 0 0 Z " fill="#819AEF" transform="translate(546,859)"/>
<path d="M0 0 C0.66 0 1.32 0 2 0 C1.67 0.66 1.34 1.32 1 2 C0.67 1.34 0.34 0.68 0 0 Z " fill="#88A0F0" transform="translate(558,733)"/>
<path d="M0 0 C0.66 0.66 1.32 1.32 2 2 C1.34 2 0.68 2 0 2 C0 1.34 0 0.68 0 0 Z " fill="#DDE1EB" transform="translate(672,534)"/>
<path d="M0 0 C2 1 2 1 2 1 Z " fill="#D2D8E1" transform="translate(824,929)"/>
<path d="" fill="#8298DF" transform="translate(0,0)"/>
<path d="" fill="#8199EB" transform="translate(0,0)"/>
<path d="" fill="#819DEF" transform="translate(0,0)"/>
<path d="M0 0 C2 1 2 1 2 1 Z " fill="#DBE1E8" transform="translate(880,855)"/>
<path d="" fill="#829CEF" transform="translate(0,0)"/>
<path d="" fill="#879FF2" transform="translate(0,0)"/>
<path d="" fill="#DBE1EB" transform="translate(0,0)"/>
<path d="" fill="#DCE2ED" transform="translate(0,0)"/>
<path d="" fill="#DBE1EB" transform="translate(0,0)"/>
<path d="" fill="#DCE2EC" transform="translate(0,0)"/>
<path d="" fill="#DBE0EB" transform="translate(0,0)"/>
<path d="" fill="#DAE0EB" transform="translate(0,0)"/>
<path d="" fill="#DCE1EB" transform="translate(0,0)"/>
<path d="" fill="#DEE3EC" transform="translate(0,0)"/>
<path d="" fill="#DDE1EB" transform="translate(0,0)"/>
<path d="" fill="#DCE1EC" transform="translate(0,0)"/>
<path d="" fill="#D9DDE4" transform="translate(0,0)"/>
<path d="" fill="#DEE3EB" transform="translate(0,0)"/>
<path d="M0 0 C2 1 2 1 2 1 Z " fill="#DDE3E8" transform="translate(493,319)"/>
<path d="M0 0 C2 1 2 1 2 1 Z " fill="#D8DBDF" transform="translate(540,312)"/>
<path d="M0 0 C2 1 2 1 2 1 Z " fill="#CBAD6D" transform="translate(509,32)"/>
<path d="" fill="#CFD6DF" transform="translate(0,0)"/>
<path d="" fill="#D5DBE3" transform="translate(0,0)"/>
<path d="" fill="#D1D6DF" transform="translate(0,0)"/>
<path d="" fill="#8295DD" transform="translate(0,0)"/>
<path d="" fill="#8295DB" transform="translate(0,0)"/>
<path d="" fill="#8194DD" transform="translate(0,0)"/>
<path d="" fill="#8497E2" transform="translate(0,0)"/>
<path d="" fill="#8194DF" transform="translate(0,0)"/>
<path d="" fill="#8199E5" transform="translate(0,0)"/>
<path d="" fill="#CFD5DF" transform="translate(0,0)"/>
<path d="" fill="#7D97E6" transform="translate(0,0)"/>
<path d="" fill="#7F93E0" transform="translate(0,0)"/>
<path d="" fill="#DAE0E8" transform="translate(0,0)"/>
<path d="" fill="#DCE4ED" transform="translate(0,0)"/>
<path d="" fill="#DDE2EC" transform="translate(0,0)"/>
<path d="" fill="#8097E1" transform="translate(0,0)"/>
<path d="" fill="#DADEE9" transform="translate(0,0)"/>
<path d="" fill="#DAE1E9" transform="translate(0,0)"/>
<path d="" fill="#8298E3" transform="translate(0,0)"/>
<path d="" fill="#7E94DD" transform="translate(0,0)"/>
<path d="" fill="#CACBD3" transform="translate(0,0)"/>
<path d="" fill="#8399E1" transform="translate(0,0)"/>
<path d="" fill="#DADFE8" transform="translate(0,0)"/>
<path d="" fill="#D4D9E1" transform="translate(0,0)"/>
<path d="" fill="#8095E7" transform="translate(0,0)"/>
<path d="" fill="#8199EA" transform="translate(0,0)"/>
<path d="" fill="#DDE0EA" transform="translate(0,0)"/>
<path d="" fill="#CECFD6" transform="translate(0,0)"/>
<path d="" fill="#DBE0EA" transform="translate(0,0)"/>
<path d="" fill="#8098E8" transform="translate(0,0)"/>
<path d="" fill="#CACFD6" transform="translate(0,0)"/>
<path d="" fill="#8299E5" transform="translate(0,0)"/>
<path d="" fill="#CED4DB" transform="translate(0,0)"/>
<path d="" fill="#859DEC" transform="translate(0,0)"/>
<path d="" fill="#839AEB" transform="translate(0,0)"/>
<path d="" fill="#7F98E9" transform="translate(0,0)"/>
<path d="" fill="#849BE8" transform="translate(0,0)"/>
<path d="" fill="#DBE1E9" transform="translate(0,0)"/>
<path d="" fill="#829DF0" transform="translate(0,0)"/>
<path d="" fill="#DDE1EB" transform="translate(0,0)"/>
<path d="" fill="#D4D9E5" transform="translate(0,0)"/>
<path d="" fill="#85A0F2" transform="translate(0,0)"/>
<path d="" fill="#D3D6DF" transform="translate(0,0)"/>
<path d="" fill="#D7DCE6" transform="translate(0,0)"/>
<path d="" fill="#839AEA" transform="translate(0,0)"/>
<path d="" fill="#DBE0E9" transform="translate(0,0)"/>
<path d="" fill="#DDE3EC" transform="translate(0,0)"/>
<path d="" fill="#DEE3EB" transform="translate(0,0)"/>
<path d="" fill="#8198E9" transform="translate(0,0)"/>
<path d="" fill="#D3DAE5" transform="translate(0,0)"/>
<path d="" fill="#839BED" transform="translate(0,0)"/>
<path d="" fill="#8299E9" transform="translate(0,0)"/>
<path d="" fill="#849EEE" transform="translate(0,0)"/>
<path d="" fill="#889DEB" transform="translate(0,0)"/>
<path d="" fill="#D3D7DE" transform="translate(0,0)"/>
<path d="" fill="#849CF0" transform="translate(0,0)"/>
<path d="" fill="#869FF2" transform="translate(0,0)"/>
<path d="" fill="#839DEE" transform="translate(0,0)"/>
<path d="" fill="#D6DAE5" transform="translate(0,0)"/>
<path d="" fill="#849FEF" transform="translate(0,0)"/>
<path d="" fill="#839AEF" transform="translate(0,0)"/>
<path d="" fill="#DCDFE9" transform="translate(0,0)"/>
<path d="" fill="#8199ED" transform="translate(0,0)"/>
<path d="" fill="#839BF0" transform="translate(0,0)"/>
<path d="" fill="#8497F0" transform="translate(0,0)"/>
<path d="" fill="#8598EE" transform="translate(0,0)"/>
<path d="" fill="#8399ED" transform="translate(0,0)"/>
<path d="" fill="#DBDFE9" transform="translate(0,0)"/>
<path d="" fill="#849CEE" transform="translate(0,0)"/>
<path d="" fill="#D6DCE2" transform="translate(0,0)"/>
<path d="" fill="#DAE1ED" transform="translate(0,0)"/>
<path d="" fill="#DCE1EA" transform="translate(0,0)"/>
<path d="" fill="#D3DAE7" transform="translate(0,0)"/>
<path d="" fill="#809BF0" transform="translate(0,0)"/>
<path d="" fill="#D6DCE6" transform="translate(0,0)"/>
<path d="" fill="#DCE0E9" transform="translate(0,0)"/>
<path d="" fill="#839DEF" transform="translate(0,0)"/>
<path d="" fill="#D5D8E1" transform="translate(0,0)"/>
<path d="" fill="#829DF0" transform="translate(0,0)"/>
<path d="" fill="#859FF0" transform="translate(0,0)"/>
<path d="" fill="#839CF0" transform="translate(0,0)"/>
<path d="" fill="#DCE0EC" transform="translate(0,0)"/>
<path d="" fill="#809AED" transform="translate(0,0)"/>
<path d="" fill="#D3D8DF" transform="translate(0,0)"/>
<path d="" fill="#849BEB" transform="translate(0,0)"/>
<path d="" fill="#D7DCEA" transform="translate(0,0)"/>
<path d="" fill="#D2D7DF" transform="translate(0,0)"/>
<path d="" fill="#849BF0" transform="translate(0,0)"/>
<path d="" fill="#D5DBE8" transform="translate(0,0)"/>
<path d="" fill="#829DF1" transform="translate(0,0)"/>
<path d="" fill="#DAE0E9" transform="translate(0,0)"/>
<path d="" fill="#849FF3" transform="translate(0,0)"/>
<path d="" fill="#829AEF" transform="translate(0,0)"/>
<path d="" fill="#DBE1E8" transform="translate(0,0)"/>
<path d="" fill="#8099F1" transform="translate(0,0)"/>
<path d="" fill="#839DF1" transform="translate(0,0)"/>
<path d="" fill="#829DF1" transform="translate(0,0)"/>
<path d="" fill="#879EF3" transform="translate(0,0)"/>
<path d="" fill="#829DF0" transform="translate(0,0)"/>
<path d="" fill="#829BEF" transform="translate(0,0)"/>
<path d="" fill="#839AF3" transform="translate(0,0)"/>
<path d="" fill="#D5DBE8" transform="translate(0,0)"/>
<path d="" fill="#DBDEEA" transform="translate(0,0)"/>
<path d="" fill="#D6DCE8" transform="translate(0,0)"/>
<path d="" fill="#D4DAE0" transform="translate(0,0)"/>
<path d="" fill="#DCE1EB" transform="translate(0,0)"/>
<path d="" fill="#819DF1" transform="translate(0,0)"/>
<path d="" fill="#879EF0" transform="translate(0,0)"/>
<path d="" fill="#86A0F2" transform="translate(0,0)"/>
<path d="" fill="#88A0EE" transform="translate(0,0)"/>
<path d="" fill="#D9E0EC" transform="translate(0,0)"/>
<path d="" fill="#D5DCE9" transform="translate(0,0)"/>
<path d="" fill="#D9DFE8" transform="translate(0,0)"/>
<path d="" fill="#85A0F1" transform="translate(0,0)"/>
<path d="" fill="#D8DDE8" transform="translate(0,0)"/>
<path d="" fill="#849EF3" transform="translate(0,0)"/>
<path d="" fill="#87A1F2" transform="translate(0,0)"/>
<path d="" fill="#869DEF" transform="translate(0,0)"/>
<path d="" fill="#D3D7E2" transform="translate(0,0)"/>
<path d="" fill="#DEE3EC" transform="translate(0,0)"/>
<path d="" fill="#DCE1E9" transform="translate(0,0)"/>
<path d="" fill="#DCE0E9" transform="translate(0,0)"/>
<path d="" fill="#D3D8E1" transform="translate(0,0)"/>
<path d="" fill="#DCE0EA" transform="translate(0,0)"/>
<path d="" fill="#829DF3" transform="translate(0,0)"/>
<path d="" fill="#859DF2" transform="translate(0,0)"/>
<path d="" fill="#889EF0" transform="translate(0,0)"/>
<path d="" fill="#DBDFEA" transform="translate(0,0)"/>
<path d="" fill="#D7DCE6" transform="translate(0,0)"/>
<path d="" fill="#D6DCE9" transform="translate(0,0)"/>
<path d="" fill="#DBE0EB" transform="translate(0,0)"/>
<path d="" fill="#D6DCE9" transform="translate(0,0)"/>
<path d="" fill="#D6DAE3" transform="translate(0,0)"/>
<path d="" fill="#869FF0" transform="translate(0,0)"/>
<path d="" fill="#D8E0E9" transform="translate(0,0)"/>
<path d="" fill="#D8DFEA" transform="translate(0,0)"/>
<path d="" fill="#DBDFE9" transform="translate(0,0)"/>
<path d="" fill="#D3D9E1" transform="translate(0,0)"/>
<path d="" fill="#DBE1E9" transform="translate(0,0)"/>
<path d="" fill="#859EF1" transform="translate(0,0)"/>
<path d="" fill="#859DEF" transform="translate(0,0)"/>
<path d="" fill="#889FF0" transform="translate(0,0)"/>
<path d="" fill="#DBDCE4" transform="translate(0,0)"/>
<path d="" fill="#D9DEEA" transform="translate(0,0)"/>
<path d="" fill="#889FEF" transform="translate(0,0)"/>
<path d="" fill="#D6DAE1" transform="translate(0,0)"/>
<path d="" fill="#D6DCE8" transform="translate(0,0)"/>
<path d="" fill="#D6DBEA" transform="translate(0,0)"/>
<path d="" fill="#D4DBE8" transform="translate(0,0)"/>
<path d="" fill="#D4DCE9" transform="translate(0,0)"/>
<path d="" fill="#85A1F1" transform="translate(0,0)"/>
<path d="" fill="#D5DBEA" transform="translate(0,0)"/>
<path d="" fill="#88A0F1" transform="translate(0,0)"/>
<path d="" fill="#D8DDEA" transform="translate(0,0)"/>
<path d="" fill="#DCE1EB" transform="translate(0,0)"/>
<path d="" fill="#D6DBE8" transform="translate(0,0)"/>
<path d="" fill="#D6DCE2" transform="translate(0,0)"/>
<path d="" fill="#89A2EF" transform="translate(0,0)"/>
<path d="" fill="#D7DCE9" transform="translate(0,0)"/>
<path d="" fill="#879FEC" transform="translate(0,0)"/>
<path d="" fill="#879DED" transform="translate(0,0)"/>
<path d="" fill="#8B9DEE" transform="translate(0,0)"/>
<path d="" fill="#88A2ED" transform="translate(0,0)"/>
<path d="" fill="#DFE4EF" transform="translate(0,0)"/>
<path d="" fill="#87A0EE" transform="translate(0,0)"/>
<path d="" fill="#D7DAE6" transform="translate(0,0)"/>
<path d="" fill="#8BA1ED" transform="translate(0,0)"/>
<path d="" fill="#8BA2EA" transform="translate(0,0)"/>
<path d="" fill="#DAE2EC" transform="translate(0,0)"/>
<path d="" fill="#8AA2EB" transform="translate(0,0)"/>
<path d="" fill="#8EA4F1" transform="translate(0,0)"/>
<path d="" fill="#849FEB" transform="translate(0,0)"/>
<path d="" fill="#8AA4EE" transform="translate(0,0)"/>
<path d="" fill="#DEE5ED" transform="translate(0,0)"/>
<path d="" fill="#D8DDEB" transform="translate(0,0)"/>
<path d="" fill="#D8DEEB" transform="translate(0,0)"/>
<path d="" fill="#D9E0EA" transform="translate(0,0)"/>
<path d="" fill="#D5DAE3" transform="translate(0,0)"/>
<path d="" fill="#D9DEEA" transform="translate(0,0)"/>
<path d="" fill="#D8DEE5" transform="translate(0,0)"/>
<path d="" fill="#DDE2ED" transform="translate(0,0)"/>
<path d="" fill="#DEE4EC" transform="translate(0,0)"/>
<path d="" fill="#DDE3ED" transform="translate(0,0)"/>
<path d="" fill="#DAE2EB" transform="translate(0,0)"/>
<path d="" fill="#DAE1EA" transform="translate(0,0)"/>
<path d="" fill="#DCE3EC" transform="translate(0,0)"/>
<path d="" fill="#D9DEE9" transform="translate(0,0)"/>
<path d="" fill="#D8DFEA" transform="translate(0,0)"/>
<path d="" fill="#DCE1EB" transform="translate(0,0)"/>
<path d="" fill="#DADEE9" transform="translate(0,0)"/>
<path d="" fill="#D9DFEB" transform="translate(0,0)"/>
<path d="" fill="#D9DFE9" transform="translate(0,0)"/>
<path d="" fill="#DCE0E8" transform="translate(0,0)"/>
<path d="" fill="#D7DBE5" transform="translate(0,0)"/>
<path d="" fill="#DDE2EC" transform="translate(0,0)"/>
<path d="" fill="#D9E0EA" transform="translate(0,0)"/>
<path d="" fill="#DBE1EC" transform="translate(0,0)"/>
<path d="" fill="#D5DCE5" transform="translate(0,0)"/>
<path d="" fill="#E0E4ED" transform="translate(0,0)"/>
<path d="" fill="#DEE3EE" transform="translate(0,0)"/>
<path d="" fill="#DEE4EE" transform="translate(0,0)"/>
<path d="" fill="#DCE2EB" transform="translate(0,0)"/>
<path d="" fill="#DBE2EB" transform="translate(0,0)"/>
<path d="" fill="#DBE0E8" transform="translate(0,0)"/>
<path d="" fill="#DBDFEC" transform="translate(0,0)"/>
<path d="" fill="#DDE1EB" transform="translate(0,0)"/>
<path d="" fill="#DDE1EB" transform="translate(0,0)"/>
<path d="" fill="#DDE4ED" transform="translate(0,0)"/>
<path d="" fill="#DCE1EB" transform="translate(0,0)"/>
<path d="" fill="#DDE2EA" transform="translate(0,0)"/>
<path d="" fill="#DCE1EB" transform="translate(0,0)"/>
<path d="" fill="#DFE3EA" transform="translate(0,0)"/>
<path d="" fill="#DAE0E8" transform="translate(0,0)"/>
<path d="" fill="#DAE1EA" transform="translate(0,0)"/>
<path d="" fill="#DAE0EB" transform="translate(0,0)"/>
<path d="" fill="#D9E0EA" transform="translate(0,0)"/>
<path d="" fill="#DFE4EC" transform="translate(0,0)"/>
<path d="" fill="#D6DCE4" transform="translate(0,0)"/>
<path d="" fill="#D7DAE3" transform="translate(0,0)"/>
<path d="" fill="#DCE2EA" transform="translate(0,0)"/>
<path d="" fill="#DFE4ED" transform="translate(0,0)"/>
<path d="" fill="#DBE0EB" transform="translate(0,0)"/>
<path d="" fill="#DCE2EC" transform="translate(0,0)"/>
<path d="" fill="#DBE2EA" transform="translate(0,0)"/>
<path d="" fill="#DAE0E8" transform="translate(0,0)"/>
<path d="" fill="#D6DBE4" transform="translate(0,0)"/>
<path d="" fill="#DCE3ED" transform="translate(0,0)"/>
<path d="" fill="#D7DAE5" transform="translate(0,0)"/>
<path d="" fill="#DCE0EB" transform="translate(0,0)"/>
<path d="" fill="#DEE3EB" transform="translate(0,0)"/>
<path d="" fill="#DAE0EA" transform="translate(0,0)"/>
<path d="" fill="#DCE2EC" transform="translate(0,0)"/>
<path d="" fill="#DAE1EB" transform="translate(0,0)"/>
<path d="" fill="#DCE3EB" transform="translate(0,0)"/>
<path d="" fill="#DDE2EB" transform="translate(0,0)"/>
<path d="" fill="#DBE1E9" transform="translate(0,0)"/>
<path d="" fill="#DDE1EA" transform="translate(0,0)"/>
<path d="" fill="#DCE1EE" transform="translate(0,0)"/>
<path d="" fill="#DDE2EE" transform="translate(0,0)"/>
<path d="" fill="#DBDFEB" transform="translate(0,0)"/>
<path d="" fill="#DEE3EC" transform="translate(0,0)"/>
<path d="" fill="#DCE1E9" transform="translate(0,0)"/>
<path d="" fill="#D7DDE7" transform="translate(0,0)"/>
<path d="" fill="#DBDEE5" transform="translate(0,0)"/>
<path d="" fill="#DEE2ED" transform="translate(0,0)"/>
<path d="" fill="#D7DCE4" transform="translate(0,0)"/>
<path d="" fill="#DCE2EB" transform="translate(0,0)"/>
<path d="" fill="#DEE5ED" transform="translate(0,0)"/>
<path d="" fill="#DDE0EA" transform="translate(0,0)"/>
<path d="" fill="#D9DEE4" transform="translate(0,0)"/>
<path d="" fill="#DCE4EC" transform="translate(0,0)"/>
<path d="" fill="#DDE4EC" transform="translate(0,0)"/>
<path d="" fill="#DAE0E9" transform="translate(0,0)"/>
<path d="" fill="#D7DBE4" transform="translate(0,0)"/>
<path d="" fill="#DBE3EB" transform="translate(0,0)"/>
<path d="" fill="#DDE2E9" transform="translate(0,0)"/>
<path d="" fill="#DBE0E9" transform="translate(0,0)"/>
<path d="" fill="#E0E3EC" transform="translate(0,0)"/>
<path d="" fill="#D7DBE4" transform="translate(0,0)"/>
<path d="" fill="#DEE4EB" transform="translate(0,0)"/>
<path d="" fill="#DDE0EB" transform="translate(0,0)"/>
<path d="" fill="#DCE3EA" transform="translate(0,0)"/>
<path d="" fill="#DDE1EA" transform="translate(0,0)"/>
<path d="" fill="#DEE2EA" transform="translate(0,0)"/>
<path d="" fill="#D7DCE3" transform="translate(0,0)"/>
<path d="" fill="#D7DBE2" transform="translate(0,0)"/>
<path d="" fill="#DBE0E9" transform="translate(0,0)"/>
<path d="" fill="#DDE2ED" transform="translate(0,0)"/>
<path d="" fill="#DDE2EA" transform="translate(0,0)"/>
<path d="" fill="#DEE1EC" transform="translate(0,0)"/>
<path d="" fill="#DEE2EB" transform="translate(0,0)"/>
<path d="" fill="#DEE3EA" transform="translate(0,0)"/>
<path d="" fill="#DEE2ED" transform="translate(0,0)"/>
<path d="" fill="#E0E4ED" transform="translate(0,0)"/>
<path d="" fill="#DADDE4" transform="translate(0,0)"/>
<path d="" fill="#DDE5ED" transform="translate(0,0)"/>
<path d="" fill="#DFE2ED" transform="translate(0,0)"/>
<path d="" fill="#D5DBE3" transform="translate(0,0)"/>
<path d="" fill="#DCE4EC" transform="translate(0,0)"/>
<path d="" fill="#D6DAE4" transform="translate(0,0)"/>
<path d="" fill="#D4D9E1" transform="translate(0,0)"/>
<path d="" fill="#DADFE7" transform="translate(0,0)"/>
<path d="" fill="#E1E7ED" transform="translate(0,0)"/>
<path d="" fill="#E3E8F1" transform="translate(0,0)"/>
<path d="" fill="#DFE5EC" transform="translate(0,0)"/>
<path d="" fill="#D7DEE4" transform="translate(0,0)"/>
<path d="" fill="#DCE0E9" transform="translate(0,0)"/>
<path d="" fill="#D7DCE3" transform="translate(0,0)"/>
<path d="" fill="#D8DEE6" transform="translate(0,0)"/>
<path d="" fill="#D7DDE4" transform="translate(0,0)"/>
<path d="" fill="#DBE2E9" transform="translate(0,0)"/>
<path d="" fill="#D8DDE3" transform="translate(0,0)"/>
<path d="" fill="#D7DDE6" transform="translate(0,0)"/>
<path d="" fill="#D7DCE5" transform="translate(0,0)"/>
<path d="" fill="#DCDFE9" transform="translate(0,0)"/>
<path d="" fill="#DBE2EA" transform="translate(0,0)"/>
<path d="" fill="#D7DDE4" transform="translate(0,0)"/>
<path d="" fill="#D7DDE4" transform="translate(0,0)"/>
<path d="" fill="#DCE1EA" transform="translate(0,0)"/>
<path d="" fill="#D7DCE4" transform="translate(0,0)"/>
<path d="" fill="#D8DCE3" transform="translate(0,0)"/>
<path d="" fill="#DDE0E9" transform="translate(0,0)"/>
<path d="" fill="#DAE2E9" transform="translate(0,0)"/>
<path d="" fill="#DCE0E9" transform="translate(0,0)"/>
<path d="" fill="#DEE1EA" transform="translate(0,0)"/>
<path d="" fill="#DCE0EA" transform="translate(0,0)"/>
<path d="" fill="#DDE3EB" transform="translate(0,0)"/>
<path d="" fill="#DDE0EA" transform="translate(0,0)"/>
<path d="" fill="#DDE2EA" transform="translate(0,0)"/>
<path d="" fill="#DFE4E9" transform="translate(0,0)"/>
<path d="" fill="#DEE6EB" transform="translate(0,0)"/>
<path d="" fill="#D7DAE1" transform="translate(0,0)"/>
<path d="" fill="#D5DAE1" transform="translate(0,0)"/>
<path d="" fill="#D8DCE2" transform="translate(0,0)"/>
<path d="" fill="#DEE4E9" transform="translate(0,0)"/>
<path d="" fill="#D8DBDE" transform="translate(0,0)"/>
<path d="" fill="#DCDCDE" transform="translate(0,0)"/>
<path d="" fill="#E9C67F" transform="translate(0,0)"/>
<path d="" fill="#EDCB7D" transform="translate(0,0)"/>
<path d="" fill="#ECC87A" transform="translate(0,0)"/>
<path d="" fill="#EBC979" transform="translate(0,0)"/>
<path d="" fill="#EFCB78" transform="translate(0,0)"/>
<path d="" fill="#EECA79" transform="translate(0,0)"/>
<path d="" fill="#EECA77" transform="translate(0,0)"/>
<path d="" fill="#EEC674" transform="translate(0,0)"/>
<path d="" fill="#EECA77" transform="translate(0,0)"/>
<path d="" fill="#EEC779" transform="translate(0,0)"/>
<path d="" fill="#F1CA76" transform="translate(0,0)"/>
<path d="" fill="#E9C575" transform="translate(0,0)"/>
<path d="" fill="#ECC677" transform="translate(0,0)"/>
<path d="" fill="#E8C272" transform="translate(0,0)"/>
<path d="" fill="#E0BB71" transform="translate(0,0)"/>
<path d="" fill="#D7B46E" transform="translate(0,0)"/>
<path d="" fill="#E4BF74" transform="translate(0,0)"/>
</svg>
